<?xml version="1.0" encoding="UTF-8" standalone="no"?>
<svg
   data-name="Layer 1"
   width="769.41145"
   height="524.37473"
   viewBox="0 0 769.41145 524.37473"
   version="1.1"
   id="svg79"
   sodipodi:docname="multiplataform_2.svg"
   inkscape:version="1.3 (0e150ed6c4, 2023-07-21)"
   xmlns:inkscape="http://www.inkscape.org/namespaces/inkscape"
   xmlns:sodipodi="http://sodipodi.sourceforge.net/DTD/sodipodi-0.dtd"
   xmlns="http://www.w3.org/2000/svg"
   xmlns:svg="http://www.w3.org/2000/svg">
  <defs
     id="defs79" />
  <sodipodi:namedview
     id="namedview79"
     pagecolor="#ffffff"
     bordercolor="#000000"
     borderopacity="0.25"
     inkscape:showpageshadow="2"
     inkscape:pageopacity="0.0"
     inkscape:pagecheckerboard="0"
     inkscape:deskcolor="#d1d1d1"
     inkscape:zoom="0.61280607"
     inkscape:cx="509.94926"
     inkscape:cy="421.83002"
     inkscape:window-width="1920"
     inkscape:window-height="1111"
     inkscape:window-x="-9"
     inkscape:window-y="-9"
     inkscape:window-maximized="1"
     inkscape:current-layer="svg79" />
  <path
     d="M 82.521391,286.98476 H 479.17705 V 57.345249 a 6.4972017,6.4972017 0 0 0 -6.48987,-6.489692 H 89.011273 a 6.4972017,6.4972017 0 0 0 -6.489882,6.489692 z"
     fill="#cacaca"
     id="path30"
     style="stroke-width:0.814187" />
  <rect
     x="94.776619"
     y="59.831238"
     width="372.14517"
     height="211.27351"
     fill="#ffffff"
     id="rect30"
     style="stroke-width:0.814187" />
  <path
     d="m 82.176189,280.77083 v 28.33775 a 8.9456945,8.9456945 0 0 0 8.945665,8.94579 H 237.52435 v 55.92534 h -1.94489 a 1.1619977,1.1619977 0 0 0 -1.16206,1.16202 v 3.88984 a 1.1620058,1.1620058 0 0 0 1.16206,1.16207 h 90.88475 a 1.1620139,1.1620139 0 0 0 1.1621,-1.16207 v -3.88982 a 1.1620058,1.1620058 0 0 0 -1.16208,-1.16203 h -1.94489 V 318.0544 h 146.40248 a 8.9456945,8.9456945 0 0 0 8.94568,-8.94579 v -28.33774 z"
     fill="#3f3d56"
     id="path31"
     style="stroke-width:0.814187" />
  <path
     d="m 210.49573,164.3139 h -90.68922 a 2.3864841,2.3864841 0 0 1 -2.38372,-2.38374 v -36.79774 a 2.3864841,2.3864841 0 0 1 2.38372,-2.38372 h 90.68922 a 2.3864596,2.3864596 0 0 1 2.38371,2.38372 v 36.79774 a 2.3864596,2.3864596 0 0 1 -2.38371,2.38374 z"
     fill="#6c63ff"
     id="path32"
     style="fill:#1f86e0;fill-opacity:1;stroke-width:0.814187" />
  <path
     d="m 201.86044,181.96598 h -73.41859 a 2.8604622,2.8604622 0 0 1 0,-5.72091 h 73.41859 c 3.68891,-0.0516 3.7258,5.77288 0,5.72091 z"
     fill="#e4e4e4"
     id="path33"
     style="stroke-width:0.814187" />
  <path
     d="m 201.86044,195.07645 h -73.41859 a 2.860467,2.860467 0 0 1 0,-5.72093 h 73.41859 c 3.68891,-0.0515 3.7258,5.77289 0,5.72093 z"
     fill="#e4e4e4"
     id="path34"
     style="stroke-width:0.814187" />
  <path
     d="m 201.86044,208.18692 h -73.41859 a 2.8604622,2.8604622 0 0 1 0,-5.72092 h 73.41859 c 3.68891,-0.0516 3.7258,5.77287 0,5.72092 z"
     fill="#e4e4e4"
     id="path35"
     style="stroke-width:0.814187" />
  <path
     d="m 326.19384,164.3139 h -90.68922 a 2.3864922,2.3864922 0 0 1 -2.38371,-2.38374 v -36.79774 a 2.3864922,2.3864922 0 0 1 2.38371,-2.38372 h 90.68922 a 2.3864596,2.3864596 0 0 1 2.38372,2.38372 v 36.79774 a 2.3864596,2.3864596 0 0 1 -2.38372,2.38374 z"
     fill="#6c63ff"
     id="path36"
     style="fill:#1f86e0;fill-opacity:1;stroke-width:0.814187" />
  <path
     d="m 317.55855,181.96598 h -73.41858 a 2.8604622,2.8604622 0 0 1 0,-5.72091 h 73.41858 c 3.6889,-0.0516 3.7258,5.77288 0,5.72091 z"
     fill="#e4e4e4"
     id="path37"
     style="stroke-width:0.814187" />
  <path
     d="m 317.55855,195.07645 h -73.41858 a 2.860467,2.860467 0 0 1 0,-5.72093 h 73.41858 c 3.6889,-0.0515 3.7258,5.77289 0,5.72093 z"
     fill="#e4e4e4"
     id="path38"
     style="stroke-width:0.814187" />
  <path
     d="m 317.55855,208.18692 h -73.41858 a 2.8604622,2.8604622 0 0 1 0,-5.72092 h 73.41858 c 3.6889,-0.0516 3.7258,5.77287 0,5.72092 z"
     fill="#e4e4e4"
     id="path39"
     style="stroke-width:0.814187" />
  <path
     d="m 441.89195,164.3139 h -90.68921 a 2.3864922,2.3864922 0 0 1 -2.38373,-2.38374 v -36.79774 a 2.3864922,2.3864922 0 0 1 2.38373,-2.38372 h 90.68921 a 2.3864515,2.3864515 0 0 1 2.38372,2.38372 v 36.79774 a 2.3864515,2.3864515 0 0 1 -2.38372,2.38374 z"
     fill="#6c63ff"
     id="path40"
     style="fill:#1f86e0;fill-opacity:1;stroke-width:0.814187" />
  <path
     d="m 433.25667,181.96598 h -73.4186 a 2.8604622,2.8604622 0 0 1 0,-5.72091 h 73.4186 c 3.6889,-0.0516 3.72579,5.77288 0,5.72091 z"
     fill="#e4e4e4"
     id="path41"
     style="stroke-width:0.814187" />
  <path
     d="m 433.25667,195.07645 h -73.4186 a 2.8604704,2.8604704 0 0 1 0,-5.72093 h 73.4186 c 3.6889,-0.0515 3.72579,5.77289 0,5.72093 z"
     fill="#e4e4e4"
     id="path42"
     style="stroke-width:0.814187" />
  <path
     d="m 433.25667,208.18692 h -73.4186 a 2.8604622,2.8604622 0 0 1 0,-5.72092 h 73.4186 c 3.6889,-0.0516 3.72579,5.77287 0,5.72092 z"
     fill="#e4e4e4"
     id="path43"
     style="stroke-width:0.814187" />
  <path
     d="m 596.8595,123.24556 0.24784,46.12286 1.01086,-0.057 0.96053,17.07591 -1.87653,0.1027 0.0522,10.25874 1.50237,-0.0296 0.30426,17.09057 -1.71045,0.0313 0.8146,150.50678 a 14.878323,14.878323 0 0 1 -14.78256,14.94479 l -166.25583,0.90091 a 14.876541,14.876541 0 0 1 -14.9448,-14.78257 L 400.87632,124.30882 A 14.878429,14.878429 0 0 1 415.65894,109.364 l 166.25573,-0.90092 a 14.88377,14.88377 0 0 1 14.94483,14.78261 z"
     fill="#3f3d56"
     id="path44"
     style="stroke-width:0.814187" />
  <path
     d="m 583.62338,369.81057 -166.84106,0.90475 a 4.5870163,4.5870163 0 0 1 -4.60656,-4.55689 l -1.31613,-242.70502 a 4.5870245,4.5870245 0 0 1 4.55687,-4.60656 l 166.84104,-0.90473 a 4.5870245,4.5870245 0 0 1 4.60656,4.55687 l 1.31613,242.70503 a 4.5870245,4.5870245 0 0 1 -4.55685,4.60655 z"
     fill="#ffffff"
     id="path45"
     style="stroke-width:0.814187" />
  <circle
     cx="498.76022"
     cy="114.41315"
     r="1.2644222"
     fill="#ffffff"
     id="circle45"
     style="stroke-width:0.814187" />
  <path
     d="M 547.80113,186.25559 H 451.2387 a 2.5410735,2.5410735 0 0 1 -2.53809,-2.5381 v -39.18082 a 2.5410735,2.5410735 0 0 1 2.53809,-2.5381 h 96.56243 a 2.5410084,2.5410084 0 0 1 2.5381,2.5381 v 39.18082 a 2.5410002,2.5410002 0 0 1 -2.5381,2.5381 z"
     fill="#6c63ff"
     id="path46"
     style="fill:#1f86e0;fill-opacity:1;stroke-width:0.814187" />
  <path
     d="m 538.6066,205.05087 h -78.17329 a 3.0457166,3.0457166 0 0 1 0,-6.09143 h 78.17329 c 3.92781,-0.0548 3.96709,6.14676 0,6.09143 z"
     fill="#e4e4e4"
     id="path47"
     style="stroke-width:0.814187" />
  <path
     d="m 538.6066,219.01039 h -78.17329 a 3.0457139,3.0457139 0 0 1 0,-6.09142 h 78.17329 c 3.92781,-0.0548 3.96709,6.14674 0,6.09142 z"
     fill="#e4e4e4"
     id="path48"
     style="stroke-width:0.814187" />
  <path
     d="m 538.6066,232.96991 h -78.17329 a 3.0457139,3.0457139 0 0 1 0,-6.09141 h 78.17329 c 3.92781,-0.0549 3.96709,6.14673 0,6.09141 z"
     fill="#e4e4e4"
     id="path49"
     style="stroke-width:0.814187" />
  <path
     d="M 547.80113,299.94417 H 451.2387 a 2.5410735,2.5410735 0 0 1 -2.53809,-2.53809 v -39.18083 a 2.5410735,2.5410735 0 0 1 2.53809,-2.53809 h 96.56243 a 2.5410002,2.5410002 0 0 1 2.5381,2.53809 v 39.18083 a 2.5410002,2.5410002 0 0 1 -2.5381,2.53809 z"
     fill="#6c63ff"
     id="path50"
     style="fill:#1f86e0;fill-opacity:1;stroke-width:0.814187" />
  <path
     d="m 538.6066,318.73949 h -78.17329 a 3.0457139,3.0457139 0 0 1 0,-6.09142 h 78.17329 c 3.92781,-0.0549 3.96709,6.14671 0,6.09142 z"
     fill="#e4e4e4"
     id="path51"
     style="stroke-width:0.814187" />
  <path
     d="m 538.6066,332.69897 h -78.17329 a 3.0457139,3.0457139 0 0 1 0,-6.09142 h 78.17329 c 3.92781,-0.0548 3.96709,6.14675 0,6.09142 z"
     fill="#e4e4e4"
     id="path52"
     style="stroke-width:0.814187" />
  <path
     d="m 538.6066,346.65849 h -78.17329 a 3.0457139,3.0457139 0 0 1 0,-6.09142 h 78.17329 c 3.92781,-0.0548 3.96709,6.14674 0,6.09142 z"
     fill="#e4e4e4"
     id="path53"
     style="stroke-width:0.814187" />
  <path
     d="m 118.76264,368.35015 -0.32117,-132.91924 1.2116,-0.003 -0.0583,-24.44718 -1.21175,0.003 -0.0992,-40.81051 a 11.606607,11.606607 0 0 0 -11.63457,-11.57835 l -86.373638,0.20855 A 11.606771,11.606771 0 0 0 8.6964929,170.43784 l 0.06872,28.45539 -1.9299214,0.0482 0.4262667,17.09258 1.5449993,-0.0386 0.00913,3.77148 -1.6441584,0.0411 0.4262667,17.09259 1.2592113,-0.0315 0.318347,131.74533 a 11.585658,11.585658 0 0 0 11.6347869,11.57928 l 86.373289,-0.20863 a 11.620774,11.620774 0 0 0 11.57925,-11.63482 z"
     fill="#3f3d56"
     id="path54"
     style="stroke-width:0.814187" />
  <path
     d="m 18.168917,374.8744 a 5.5731742,5.5731742 0 0 1 -3.688798,-5.227 L 13.996451,169.37937 a 5.5620932,5.5620932 0 0 1 5.548219,-5.57492 l 18.377585,-0.0444 -0.227643,0.56122 a 6.4107107,6.4107107 0 0 0 5.956847,8.81763 l 40.785353,-0.0984 a 6.4926179,6.4926179 0 0 0 4.983334,-3.09449 6.357406,6.357406 0 0 0 0.442774,-5.75046 l -0.230213,-0.56036 18.983093,-0.0462 a 5.5693558,5.5693558 0 0 1 5.57516,5.54872 l 0.46193,191.07265 a 14.775027,14.775027 0 0 1 -14.722519,14.79265 l -79.8751,0.19303 a 5.5702431,5.5702431 0 0 1 -1.886346,-0.3217 z"
     fill="#ffffff"
     id="path55"
     style="stroke-width:0.814187" />
  <circle
     cx="49.633923"
     cy="167.24261"
     r="1.2644222"
     fill="#ffffff"
     id="circle55"
     style="stroke-width:0.814187" />
  <path
     d="M 98.511664,230.05545 H 32.890159 a 1.7268309,1.7268309 0 0 1 -1.72482,-1.72482 v -26.62636 a 1.7268309,1.7268309 0 0 1 1.72482,-1.72483 h 65.621505 a 1.7268064,1.7268064 0 0 1 1.724836,1.72483 v 26.62636 a 1.7268064,1.7268064 0 0 1 -1.724836,1.72482 z"
     fill="#6c63ff"
     id="path56"
     style="fill:#1f86e0;fill-opacity:1;stroke-width:0.814187" />
  <path
     d="M 92.263303,242.82828 H 39.138575 a 2.0698,2.0698 0 1 1 0,-4.1396 h 53.124728 c 2.66923,-0.0373 2.695928,4.17719 0,4.1396 z"
     fill="#e4e4e4"
     id="path57"
     style="stroke-width:0.814187" />
  <path
     d="M 92.263303,252.31484 H 39.138575 a 2.069795,2.069795 0 1 1 0,-4.13959 h 53.124728 c 2.66923,-0.0373 2.695928,4.17718 0,4.13959 z"
     fill="#e4e4e4"
     id="path58"
     style="stroke-width:0.814187" />
  <path
     d="M 92.263303,261.80139 H 39.138575 a 2.0697983,2.0697983 0 1 1 0,-4.13959 h 53.124728 c 2.66923,-0.0373 2.695928,4.17719 0,4.13959 z"
     fill="#e4e4e4"
     id="path59"
     style="stroke-width:0.814187" />
  <path
     d="m 621.92325,367.9687 c 5.96357,-0.13824 10.68593,-5.08475 10.54768,-11.04832 l 2.79838,-34.67122 -14.53427,-2.59859 -0.0952,26.76821 c -5.78605,0.55604 -10.09442,5.59137 -9.74885,11.39379 0.34556,5.80241 5.22112,10.2908 11.03226,10.15616 z"
     fill="#ffb8b8"
     id="path75"
     sodipodi:nodetypes="sccccsss" />
  <path
     d="M 98.511664,309.84566 H 32.890159 a 1.7268309,1.7268309 0 0 1 -1.72482,-1.72483 v -26.62636 a 1.7268309,1.7268309 0 0 1 1.72482,-1.72483 h 65.621505 a 1.7268064,1.7268064 0 0 1 1.724836,1.72483 v 26.62636 a 1.7268064,1.7268064 0 0 1 -1.724836,1.72483 z"
     fill="#6c63ff"
     id="path60"
     style="fill:#1f86e0;fill-opacity:1;stroke-width:0.814187" />
  <path
     d="M 92.263303,322.61848 H 39.138575 a 2.0697983,2.0697983 0 1 1 0,-4.13959 h 53.124728 c 2.66923,-0.0373 2.695928,4.17718 0,4.13959 z"
     fill="#e4e4e4"
     id="path61"
     style="stroke-width:0.814187" />
  <path
     d="M 92.263303,332.10503 H 39.138575 a 2.0697916,2.0697916 0 1 1 0,-4.13958 h 53.124728 c 2.66923,-0.0373 2.695928,4.17716 0,4.13958 z"
     fill="#e4e4e4"
     id="path62"
     style="stroke-width:0.814187" />
  <path
     d="M 92.263303,341.59158 H 39.138575 a 2.0697983,2.0697983 0 1 1 0,-4.13958 h 53.124728 c 2.66923,-0.0373 2.695928,4.17718 0,4.13958 z"
     fill="#e4e4e4"
     id="path63"
     style="stroke-width:0.814187" />
  <path
     d="m 698.39959,341.00472 c -11.72577,35.17727 -59.69483,-2.132 -59.69483,-2.132 l 12.79175,-133.24728 c 19.18762,-14.92374 39.44122,-2.132 39.44122,-2.132 z"
     fill="#e6e6e6"
     id="path68"
     style="fill:#bfdbf8;fill-opacity:1" />
  <polygon
     points="661.731,464.458 678.076,464.63 673.993,511.745 661.733,511.746 "
     fill="#ffb8b8"
     id="polygon68"
     transform="translate(34.150199,-5.3933653)" />
  <path
     d="m 692.75566,502.34901 h 24.14382 a 15.40412,15.40412 0 0 1 15.3868,15.38672 v 0.5 h -39.53062 z"
     fill="#2f2e41"
     id="path69" />
  <polygon
     points="617.421,464.458 599.327,464.457 605.159,511.745 617.419,511.746 "
     fill="#ffb8b8"
     id="polygon69"
     transform="translate(34.150199,-5.3933653)" />
  <path
     d="m 615.16484,518.23528 v -0.5 a 15.38689,15.38689 0 0 1 15.38745,-15.38627 l 24.144,10e-4 -7.3e-4,15.88721 z"
     fill="#2f2e41"
     id="path70" />
  <path
     d="m 694.77775,498.19036 -21.413,-124.82275 -19.8396,123.21386 -20.10059,1.1167 -5.35986,-165.08593 0.404,-0.0903 c 3.32324,-0.74414 81.53675,-17.92285 94.35848,6.65235 l 0.065,0.12451 -10.70141,159.45312 z"
     fill="#2f2e41"
     id="path71" />
  <circle
     cx="672.08398"
     cy="165.44914"
     r="24.561029"
     fill="#ffb8b8"
     id="circle71" />
  <path
     d="m 692.71782,351.53118 c -2.879,-0.79736 -4.95374,-4.10351 -6.52906,-10.40527 -0.2716,-1.08643 -25.772,-109.71143 -4.20691,-129.3916 l 4.97083,-13.80811 6.80261,4.53516 c 2.40711,0.0225 27.02079,0.64551 29.12439,16.42285 2.0593,15.44336 7.6655,118.91308 2.0304,125.34912 a 1.21859,1.21859 0 0 1 -0.927,0.46924 c -5.7107,0 -7.4442,-6.33643 -7.8514,-8.356 -1.3579,0.5625 -5.40214,2.62891 -12.04862,9.27539 -4.11706,4.11719 -7.34521,6.09033 -10.01221,6.09033 a 5.03681,5.03681 0 0 1 -1.35303,-0.18111 z"
     fill="#2f2e41"
     id="path72" />
  <path
     d="m 639.41728,345.62201 c -6.64844,-6.64844 -9.53924,-2.65646 -10.8947,-3.2175 -0.40723,2.01953 0.67172,2.08176 -5.03898,2.08176 -0.36354,-0.0102 -4.66997,0.034 -4.89347,-0.25289 -5.63452,-6.43555 -0.0288,-109.90527 2.03027,-125.34912 2.10376,-15.77734 26.71753,-16.40039 29.12452,-16.42285 l 6.80273,-4.53516 4.9707,13.80811 c 21.5636,19.67871 -3.9353,128.30517 -4.20678,129.3916 -1.57544,6.30176 -3.65015,9.60791 -6.52906,10.40527 -0.44069,0.1215 -0.89587,0.18244 -1.353,0.18115 -2.66702,-5e-5 -5.89553,-1.97368 -10.01223,-6.09037 z"
     fill="#2f2e41"
     id="path73"
     sodipodi:nodetypes="sccccccccccs" />
  <path
     d="m 692.36162,179.47881 a 25.2045,25.2045 0 0 0 -12.20761,-45.54 c -2.261,-0.22632 -4.6962,-0.19263 -6.57089,-1.47671 -1.66538,-1.14075 -2.56235,-3.11927 -4.09274,-4.43557 a 8.92882,8.92882 0 0 0 -6.92633,-1.746 25.06232,25.06232 0 0 0 -6.96241,2.28755 c -5.4461,2.4281 -11.23532,5.41651 -13.71368,10.83994 -2.14673,4.69778 -1.19916,10.49066 1.83963,14.66717 a 20.40969,20.40969 0 0 0 13.01642,7.6857 32.53463,32.53463 0 0 0 15.28491,-1.3764 c 3.24149,-1.02 6.44168,-2.40994 9.83795,-2.52344 a 13.36948,13.36948 0 0 1 10.14533,22.56406"
     fill="#2f2e41"
     id="path74" />
  <path
     d="m 724.66418,352.06264 a 10.80089,10.80089 0 0 0 3.1494,-14.94663 l -0.5484,-28.0867 -14.75051,-2.7981 -0.28894,28.1868 a 10.80119,10.80119 0 0 0 12.43845,17.64462 z"
     fill="#ffb8b8"
     id="path76" />
  <path
     d="m 709.70781,326.0971 a 4.57042,4.57042 0 0 1 -2.707,-2.48438 c -3.21644,-7.50488 10.56937,-102.30224 11.15767,-106.334 l 0.1114,-0.7627 4.6604,2.95313 0.046,0.20117 c 0.1376,0.60547 13.7125,60.99707 10.033,101.126 l -0.026,0.28711 -0.2614,0.12109 c -0.5606,0.25977 -11.868,5.45264 -19.4041,5.45264 a 10.19225,10.19225 0 0 1 -3.60925,-0.56006 z"
     fill="#2f2e41"
     id="path78" />
  <path
     d="m 32.00001,517.19001 a 1.18646,1.18646 0 0 0 1.18292,1.19 h 715.29708 a 1.19,1.19 0 1 0 0,-2.38 h -715.29 a 1.18649,1.18649 0 0 0 -1.19,1.183 z"
     fill="#cccccc"
     id="path27" />
</svg>
