<?xml version="1.0" encoding="UTF-8" standalone="no"?>
<svg
   data-name="Layer 1"
   width="769.41145"
   height="524.37473"
   viewBox="0 0 769.41145 524.37473"
   version="1.1"
   id="svg79"
   sodipodi:docname="performance.svg"
   inkscape:version="1.3 (0e150ed6c4, 2023-07-21)"
   xmlns:inkscape="http://www.inkscape.org/namespaces/inkscape"
   xmlns:sodipodi="http://sodipodi.sourceforge.net/DTD/sodipodi-0.dtd"
   xmlns="http://www.w3.org/2000/svg"
   xmlns:svg="http://www.w3.org/2000/svg">
  <defs
     id="defs79" />
  <sodipodi:namedview
     id="namedview79"
     pagecolor="#ffffff"
     bordercolor="#000000"
     borderopacity="0.25"
     inkscape:showpageshadow="2"
     inkscape:pageopacity="0.0"
     inkscape:pagecheckerboard="0"
     inkscape:deskcolor="#d1d1d1"
     inkscape:zoom="0.65066899"
     inkscape:cx="254.3536"
     inkscape:cy="99.128744"
     inkscape:window-width="1920"
     inkscape:window-height="1111"
     inkscape:window-x="-9"
     inkscape:window-y="-9"
     inkscape:window-maximized="1"
     inkscape:current-layer="svg79" />
  <rect
     x="18.248859"
     y="6.1139426"
     width="536.1933"
     height="349.9278"
     fill="#e6e6e6"
     id="rect1-2"
     style="stroke-width:0.769305" />
  <rect
     x="33.810181"
     y="50.003605"
     width="505.52878"
     height="281.46896"
     fill="#ffffff"
     id="rect2-4"
     style="stroke-width:1.11749" />
  <rect
     width="536.1933"
     height="23.212337"
     fill="#6c63ff"
     id="rect21-3"
     style="fill:#10437a;fill-opacity:1;stroke-width:0.769305"
     x="18.248859"
     y="5.8042006" />
  <ellipse
     cx="35.176754"
     cy="17.671577"
     fill="#ffffff"
     id="circle21-9"
     style="stroke-width:0.769305"
     rx="4.2219987"
     ry="4.3022299" />
  <ellipse
     cx="51.202389"
     cy="17.671577"
     fill="#ffffff"
     id="circle22-4"
     style="stroke-width:0.769305"
     rx="4.2219987"
     ry="4.3022299" />
  <ellipse
     cx="67.22802"
     cy="17.671577"
     fill="#ffffff"
     id="circle23-2"
     style="stroke-width:0.769305"
     rx="4.2219987"
     ry="4.3022299" />
  <path
     d="M 386.62241,204.90768 H 198.02146 a 13.495351,13.751807 0 0 1 -13.62074,-12.5917 13.269847,13.522017 0 0 1 12.34134,-14.40619 q 0.4448,-0.0309 0.89085,-0.0309 h 188.9895 a 13.262428,13.514455 0 0 1 0,27.02891 z"
     fill="#6c63ff"
     id="path6"
     style="fill:#22e01f;fill-opacity:1;stroke-width:1.11566" />
  <ellipse
     cx="386.97174"
     cy="117.00941"
     fill="#e6e6e6"
     id="circle6"
     style="stroke-width:1.11566"
     rx="11.982045"
     ry="12.209742" />
  <path
     d="m 385.3371,123.36407 a 1.3324313,1.3577517 0 0 1 -1.06616,-0.54337 l -3.26885,-4.44142 a 1.3328071,1.3581345 0 1 1 2.13256,-1.6296 l 2.13855,2.90544 5.49277,-8.3956 a 1.3328763,1.3582051 0 0 1 2.22336,1.49863 l -0.006,0.008 -6.53778,9.993 a 1.3335032,1.358844 0 0 1 -1.07205,0.60441 z"
     fill="#ffffff"
     id="path7"
     style="stroke-width:1.11566" />
  <ellipse
     cx="386.97174"
     cy="265.6683"
     fill="#e6e6e6"
     id="circle7"
     style="stroke-width:1.11566"
     rx="11.982033"
     ry="12.209729" />
  <path
     d="m 385.3371,272.02299 a 1.3324313,1.3577517 0 0 1 -1.06616,-0.54336 l -3.26885,-4.44141 a 1.3328071,1.3581345 0 1 1 2.13256,-1.62963 l 2.13855,2.90547 5.49277,-8.3956 a 1.3328745,1.3582033 0 0 1 2.22336,1.49862 l -0.006,0.007 -6.53778,9.99299 a 1.3335032,1.358844 0 0 1 -1.07205,0.60441 z"
     fill="#ffffff"
     id="path8"
     style="stroke-width:1.11566" />
  <path
     d="m 290.46985,130.57822 h -92.44839 a 13.495351,13.751807 0 0 1 -13.62074,-12.59171 13.269847,13.522017 0 0 1 12.34134,-14.40619 q 0.4448,-0.0307 0.89085,-0.0311 h 92.83694 a 13.262426,13.514455 0 0 1 0,27.02891 z"
     fill="#6c63ff"
     id="path9"
     style="fill:#22e01f;fill-opacity:1;stroke-width:1.11566" />
  <path
     d="m 386.62241,131.14131 h -188.9895 a 13.815021,14.077552 0 0 1 0,-28.15508 h 188.9895 a 13.815021,14.077552 0 0 1 0,28.15508 z m -188.9895,-25.90268 a 11.604618,11.825142 0 0 0 0,23.65028 h 188.9895 a 11.604618,11.825142 0 0 0 0,-23.65028 z"
     fill="#3f3d56"
     id="path10"
     style="stroke-width:1.11566" />
  <path
     d="m 386.62241,205.47079 h -188.9895 a 13.815021,14.077552 0 0 1 0,-28.1551 h 188.9895 a 13.815021,14.077552 0 0 1 0,28.1551 z m -188.9895,-25.9027 a 11.604621,11.825145 0 0 0 0,23.65029 h 188.9895 a 11.604621,11.825145 0 0 0 0,-23.65029 z"
     fill="#3f3d56"
     id="path11"
     style="stroke-width:1.11566" />
  <path
     d="m 250.6826,279.23715 h -52.66114 a 13.495351,13.751807 0 0 1 -13.62074,-12.59171 13.269847,13.522017 0 0 1 12.34134,-14.40618 q 0.4448,-0.0309 0.89085,-0.0309 h 53.04969 a 13.262421,13.514449 0 0 1 0,27.02889 z"
     fill="#6c63ff"
     id="path12"
     style="fill:#22e01f;fill-opacity:1;stroke-width:1.11566" />
  <path
     d="m 386.62241,279.80024 h -188.9895 a 13.815021,14.077552 0 0 1 0,-28.15509 h 188.9895 a 13.815021,14.077552 0 0 1 0,28.15509 z m -188.9895,-25.90268 a 11.604621,11.825145 0 0 0 0,23.65029 h 188.9895 a 11.604621,11.825145 0 0 0 0,-23.65029 z"
     fill="#3f3d56"
     id="path13"
     style="stroke-width:1.11566" />
  <path
     d="m 233.00024,89.032862 h -44.20807 a 4.4208071,4.5048163 0 0 1 0,-9.009623 h 44.20807 a 4.4208071,4.5048163 0 0 1 0,9.009623 z"
     fill="#cccccc"
     id="path14"
     style="stroke-width:1.11566" />
  <path
     d="m 233.00024,163.36234 h -44.20807 a 4.4208108,4.50482 0 0 1 0,-9.00964 h 44.20807 a 4.4208108,4.50482 0 0 1 0,9.00964 z"
     fill="#cccccc"
     id="path15"
     style="stroke-width:1.11566" />
  <path
     d="m 233.00024,237.69179 h -44.20807 a 4.4208083,4.5048175 0 0 1 0,-9.00963 h 44.20807 a 4.4208083,4.5048175 0 0 1 0,9.00963 z"
     fill="#cccccc"
     id="path16"
     style="stroke-width:1.11566" />
  <ellipse
     cx="166.70036"
     cy="84.997971"
     rx="4.8037267"
     ry="5.0040846"
     fill="#3f3d56"
     id="ellipse16"
     style="stroke-width:1.11566" />
  <ellipse
     cx="166.70036"
     cy="159.32741"
     rx="4.8037267"
     ry="5.0040731"
     fill="#3f3d56"
     id="ellipse17"
     style="stroke-width:1.11566" />
  <ellipse
     cx="166.70036"
     cy="233.65692"
     rx="4.8037267"
     ry="5.0040731"
     fill="#3f3d56"
     id="ellipse18"
     style="stroke-width:1.11566" />
  <polygon
     points="513.946,544.191 504.045,544.19 499.335,506 513.948,506.001 "
     fill="#ffb6b6"
     id="polygon18"
     transform="matrix(0.92836087,0,0,0.94600265,171.47216,-20.421508)" />
  <path
     d="m 648.92308,504.15553 -28.26585,-9.6e-4 v -0.3642 a 11.002441,11.211522 0 0 1 11.00185,-11.21075 h 6.8e-4 l 5.16309,-3.99141 9.63321,3.99205 2.46743,5e-5 z"
     fill="#2f2e41"
     id="path18"
     style="stroke-width:0.93714" />
  <polygon
     points="552.946,544.191 543.045,544.19 538.335,506 552.948,506.001 "
     fill="#ffb6b6"
     id="polygon19"
     transform="matrix(0.92836087,0,0,0.94600265,171.47216,-20.421508)" />
  <path
     d="m 685.12913,504.15553 -28.26578,-9.6e-4 v -0.3642 a 11.002441,11.211522 0 0 1 11.00178,-11.21075 h 7.2e-4 l 5.16304,-3.99141 9.63322,3.99205 2.46743,5e-5 z"
     fill="#2f2e41"
     id="path19"
     style="stroke-width:0.93714" />
  <path
     d="m 616.96875,268.10929 -6.49852,22.70407 7.65569,96.15634 c 0,0 -3.94224,6.01194 -1.15717,6.01194 2.78508,0 6.35637,1.33333 4.10652,4.92367 -2.24986,3.59035 5.4402,16.48022 5.4402,16.48022 l 10.87723,68.46637 13.85957,-0.20856 c 0,0 7.04635,-4.00001 3.09194,-8.0448 -3.9544,-4.04481 -6.73944,-4.04472 -3.02606,-7.82873 3.71348,-3.784 3.71348,-2.64435 3.71348,-5.57918 0,-2.93483 3.72037,-38.80101 -5.1026,-52.55896 l 2.6585,-56.0935 6.2614,55.02087 12.89311,73.40083 13.35143,-0.11208 c 0,0 6.16693,-6.05698 6.15552,-10.54044 -0.0113,-4.48346 -3.8102,-4.85594 -0.98241,-7.50774 2.82769,-2.65179 2.82779,-43.3895 -5.52751,-66.03397 l 0.0637,-101.28958 c 0,0 8.20925,-22.73308 -0.10494,-31.67195 -8.31429,-8.93886 -67.72929,4.30518 -67.72929,4.30518 z"
     fill="#2f2e41"
     id="path20"
     style="stroke-width:0.93714" />
  <path
     d="m 700.65146,228.49668 5.5971,-59.07732 a 9.4013342,9.5799891 0 0 0 -8.33701,-10.41539 v 0 a 9.4013249,9.5799796 0 0 0 -10.36895,8.48011 q -0.0267,0.25264 -0.0411,0.50647 l -3.96767,61.5485 -3.9581,37.2956 a 8.20399,8.3598916 0 1 0 9.67854,4.22464 z"
     fill="#ffb6b6"
     id="path21"
     style="stroke-width:0.93714" />
  <path
     d="m 679.66308,139.47367 20.16621,2.57628 c 0,0 15.10996,29.02188 12.00002,31.48486 -3.10993,2.46297 -17.16347,17.82889 -27.5244,10.78483 -10.36093,-7.04405 -4.64183,-44.84597 -4.64183,-44.84597 z"
     fill="#3f3d56"
     id="path22"
     style="fill:#bfdbf8;fill-opacity:1;stroke-width:0.93714" />
  <ellipse
     cx="645.92291"
     cy="92.782875"
     fill="#ffb6b6"
     id="circle22"
     style="stroke-width:0.93714"
     rx="21.404009"
     ry="21.810753" />
  <path
     d="m 654.19345,112.80588 c -6.14227,-0.20535 -6.70008,-1.85855 -12.84224,-2.0639 -1.95576,-0.0653 -4.26358,-0.33852 -5.20909,-2.08424 a 4.5141084,4.5998906 0 0 1 0.22915,-4.09442 36.686445,37.383603 0 0 0 1.89219,-3.7929 6.5010977,6.624639 0 0 0 -6.44141,-8.733835 c -1.86913,0.08232 -3.62459,0.977983 -5.48857,1.141677 -2.55634,0.224514 -8.209,-8.376228 -7.03206,-10.699487 1.14566,-2.261484 3.4512,-3.967715 3.81362,-6.485795 0.23702,-1.646992 -0.43013,-3.283384 -0.52129,-4.945353 -0.13514,-2.464256 5.99497,3.092092 4.87225,0.905159 -2.75392,-5.364783 23.19744,-12.015603 27.46996,-5.295782 1.59675,2.511492 4.44253,2.340184 6.97892,3.848482 1.66243,0.988572 5.86013,4.398982 6.81448,6.524664 a 16.241033,16.549664 0 0 1 1.21552,6.847809 c 0.038,10.904059 -1.59182,20.934091 -10.2231,27.379491"
     fill="#2f2e41"
     id="path23"
     style="stroke-width:0.93714" />
  <path
     d="m 639.24937,117.69488 17.63895,-3.78402 13.54836,6.64047 c 0,0 32.04598,13.13552 31.93692,26.08745 -0.10905,12.95193 -5.7414,41.33201 -12.20877,44.17002 -6.46748,2.838 5.60121,12.29803 1.88783,17.97405 -3.71348,5.67602 -9.33844,44.45352 -9.33844,44.45352 0,0 13.15049,26.69431 2.02474,31.901 -11.12564,5.20669 -58.14244,10.07438 -61.15632,3.28104 -3.01388,-6.79334 -3.04182,-3.08613 -9.99053,-4.93975 -6.94871,-1.85362 0.007,-27.84258 6.27709,-30.45713 6.26972,-2.61456 9.98317,-59.37473 9.98317,-59.37473 l -9.98317,-44.13439 15.23178,-21.84761 z"
     fill="#3f3d56"
     id="path24"
     style="fill:#bfdbf8;fill-opacity:1;stroke-width:0.93714" />
  <path
     d="m 626.89503,239.00956 15.93605,-57.08728 a 9.4013249,9.5799796 0 0 0 -6.36201,-11.77382 v 0 a 9.4013342,9.5799891 0 0 0 -11.69693,6.44084 q -0.0713,0.24353 -0.12987,0.49063 l -14.76964,59.81683 -10.47825,35.96147 a 8.204055,8.3599578 0 1 0 8.77467,5.93007 z"
     fill="#ffb6b6"
     id="path25"
     style="stroke-width:0.93714" />
  <path
     d="m 621.9664,147.59139 19.38243,6.23132 c 0,0 12.60676,18.86362 7.88733,21.55477 -4.71943,2.69115 -6.49008,2.12188 -4.06603,6.86908 2.42416,4.74721 5.9181,2.89459 2.42416,4.7472 -3.49404,1.8526 -20.03127,14.3914 -28.97946,5.56284 -8.94819,-8.82855 3.35157,-44.96521 3.35157,-44.96521 z"
     fill="#3f3d56"
     id="path26"
     style="fill:#bfdbf8;fill-opacity:1;stroke-width:0.93714" />
  <path
     d="m 553.20091,507.33218 a 0.33064221,1.2426644 0 0 0 0.32965,1.24638 h 199.33872 a 0.3316295,1.246375 0 1 0 0,-2.49275 H 553.53253 a 0.33065059,1.2426958 0 0 0 -0.33162,1.23904 z"
     fill="#cccccc"
     id="path27"
     style="stroke-width:0.540261" />
  <ellipse
     cx="386.97174"
     cy="191.33887"
     fill="#6c63ff"
     id="circle27"
     style="fill:#22e01f;fill-opacity:1;stroke-width:1.11566"
     rx="22.559336"
     ry="22.988031" />
  <path
     d="m 383.89414,203.30316 a 2.5086532,2.5563255 0 0 1 -2.0073,-1.02305 l -6.15447,-8.36207 a 2.5093633,2.557049 0 0 1 4.0151,-3.06829 l 4.02638,5.47029 10.34155,-15.80691 a 2.5094853,2.5571736 0 0 1 4.18605,2.82156 l -0.009,0.0153 -12.30908,18.81443 a 2.5106868,2.5583977 0 0 1 -2.01834,1.13797 z"
     fill="#ffffff"
     id="path28"
     style="stroke-width:1.11566" />
</svg>
