<?xml version="1.0" encoding="UTF-8" standalone="no"?>
<!-- Created with Inkscape (http://www.inkscape.org/) -->

<svg
   version="1.1"
   id="svg1"
   width="268.34348"
   height="174.56058"
   viewBox="0 0 268.34348 174.56058"
   sodipodi:docname="Soltec.pdf"
   xmlns:inkscape="http://www.inkscape.org/namespaces/inkscape"
   xmlns:sodipodi="http://sodipodi.sourceforge.net/DTD/sodipodi-0.dtd"
   xmlns="http://www.w3.org/2000/svg"
   xmlns:svg="http://www.w3.org/2000/svg">
  <defs
     id="defs1">
    <clipPath
       clipPathUnits="userSpaceOnUse"
       id="clipPath6">
      <path
         d="M 361.02808,499.50571 H 1201.6531 V 777.63074 H 361.02808 Z"
         transform="matrix(1.9079931,0,0,1.9174831,-490.79258,-233.79378)"
         clip-rule="evenodd"
         id="path6" />
    </clipPath>
    <clipPath
       clipPathUnits="userSpaceOnUse"
       id="clipPath8">
      <path
         d="M 361.02808,499.50571 H 1201.6531 V 777.63074 H 361.02808 Z"
         transform="matrix(1.9079931,0,0,1.9174831,-490.79258,-233.79378)"
         clip-rule="evenodd"
         id="path8" />
    </clipPath>
    <clipPath
       clipPathUnits="userSpaceOnUse"
       id="clipPath10">
      <path
         d="M 361.02808,499.50571 H 1201.6531 V 777.63074 H 361.02808 Z"
         transform="matrix(1.9079931,0,0,1.9174831,-490.79258,-233.79378)"
         clip-rule="evenodd"
         id="path10" />
    </clipPath>
    <clipPath
       clipPathUnits="userSpaceOnUse"
       id="clipPath12">
      <path
         d="M 361.02808,499.50571 H 1201.6531 V 777.63074 H 361.02808 Z"
         transform="matrix(1.9079931,0,0,1.9174831,-490.79258,-233.79378)"
         clip-rule="evenodd"
         id="path12" />
    </clipPath>
    <clipPath
       clipPathUnits="userSpaceOnUse"
       id="clipPath14">
      <path
         d="M 361.02808,499.50571 H 1201.6531 V 777.63074 H 361.02808 Z"
         transform="matrix(1.9079931,0,0,1.9174831,-490.79258,-233.79378)"
         clip-rule="evenodd"
         id="path14" />
    </clipPath>
    <clipPath
       clipPathUnits="userSpaceOnUse"
       id="clipPath16">
      <path
         d="M 361.02808,499.50571 H 1201.6531 V 777.63074 H 361.02808 Z"
         transform="matrix(1.9079931,0,0,1.9174831,-490.79258,-233.79378)"
         clip-rule="evenodd"
         id="path16" />
    </clipPath>
    <clipPath
       clipPathUnits="userSpaceOnUse"
       id="clipPath18">
      <path
         d="M 361.02808,499.50571 H 1201.6531 V 777.63074 H 361.02808 Z"
         transform="matrix(1.9079931,0,0,1.9174831,-490.79258,-233.79378)"
         clip-rule="evenodd"
         id="path18" />
    </clipPath>
    <clipPath
       clipPathUnits="userSpaceOnUse"
       id="clipPath20">
      <path
         d="M 0,0 H 1562.5 V 1562.5 H 0 Z"
         transform="matrix(0.28616038,0,0,0.28616038,-154.63284,-273.44086)"
         clip-rule="evenodd"
         id="path20" />
    </clipPath>
    <clipPath
       clipPathUnits="userSpaceOnUse"
       id="clipPath22">
      <path
         d="M 0,0 H 1562.5 V 1562.5 H 0 Z"
         transform="matrix(0.31999999,0,0,0.31999999,-221.27819,-337.4677)"
         clip-rule="evenodd"
         id="path22" />
    </clipPath>
  </defs>
  <sodipodi:namedview
     id="namedview1"
     pagecolor="#ffffff"
     bordercolor="#000000"
     borderopacity="0.25"
     inkscape:showpageshadow="2"
     inkscape:pageopacity="0.0"
     inkscape:pagecheckerboard="0"
     inkscape:deskcolor="#d1d1d1" />
  <g
     id="g1"
     inkscape:groupmode="layer"
     inkscape:label="1"
     transform="translate(-115.85661,-162.9863)">
    <path
       id="path5"
       d="m 674.73047,1243.3086 c 0,0 2.53906,0.5508 7.30469,1.4297 4.76562,0.8125 11.75,2.0234 20.64843,3.2031 17.78907,2.4102 43.19922,4.8203 73.69141,6.0195 7.625,0.2696 15.56641,0.5196 23.78516,0.6172 8.21875,0.1836 16.71875,0.1133 25.44922,-0.2187 17.47265,-0.5781 35.89453,-2.8399 54.95312,-4.918 19.05859,-2.1523 38.75391,-3.5195 58.76563,-3.2617 20.01171,0.059 40.34375,1.4609 60.67187,3.4805 20.3281,2.0195 40.6602,3.9882 60.6719,4.8086 20.0078,0.8125 39.707,1.6523 58.7695,2.2304 19.0586,0.5508 37.4805,0.6211 54.9492,0.1094 17.4688,-0.5195 33.9883,-1.2695 49.2305,-2.25 15.25,-0.9805 29.2305,-2.1172 41.6172,-3.3203 6.1914,-0.5781 11.9922,-1.2266 17.3515,-1.8594 5.3594,-0.6094 10.2813,-1.1601 14.7305,-1.7891 17.7891,-2.3007 27.9492,-4.2812 27.9492,-4.2812 v -2.8398 c 0,0 -10.1601,-1.9883 -27.9492,-4.2891 -4.4492,-0.6289 -9.3711,-1.1797 -14.7305,-1.7891 -5.3593,-0.6289 -11.1601,-1.2812 -17.3515,-1.8593 -12.3867,-1.2032 -26.3672,-2.3399 -41.6172,-3.3204 -15.2422,-0.9804 -31.7617,-1.7304 -49.2305,-2.25 -17.4687,-0.5117 -35.8906,-0.4414 -54.9492,0.1094 -19.0625,0.5781 -38.7617,1.418 -58.7695,2.2305 -20.0117,0.8203 -40.3438,2.789 -60.6719,4.8086 -20.32812,2.0195 -40.66016,3.4219 -60.67187,3.4804 -20.01172,0.2618 -39.70704,-1.1093 -58.76563,-3.2617 -19.05859,-2.0781 -37.48047,-4.3398 -54.95312,-4.9179 -8.73047,-0.3321 -17.23047,-0.3985 -25.44922,-0.2188 -8.21875,0.098 -16.16016,0.3477 -23.78516,0.6172 -30.49219,1.2031 -55.90234,3.6133 -73.69141,6.0312 -8.89843,1.1719 -15.88281,2.379 -20.64843,3.1915 -4.76563,0.8789 -7.30469,1.4375 -7.30469,1.4375 v 2.8398"
       style="fill:#27aae1;fill-opacity:1;fill-rule:nonzero;stroke:none"
       transform="matrix(0.16771548,0,0,0.16688543,82.313513,39.016776)"
       clip-path="url(#clipPath6)"
       inkscape:export-filename="path5.svg"
       inkscape:export-xdpi="96"
       inkscape:export-ydpi="96" />
    <path
       id="path7"
       d="m 1572.1016,1189.8516 c 0,0 -2.9024,-0.5899 -8.3399,-1.5313 -5.4531,-0.8711 -13.4336,-2.1601 -23.5898,-3.4219 -20.3203,-2.5781 -49.3438,-5.1484 -84.1836,-6.4296 -8.707,-0.2891 -17.7774,-0.5586 -27.168,-0.668 -9.3906,-0.1914 -19.0898,-0.1211 -29.0703,0.2383 -19.9609,0.6093 -41,3.0312 -62.7695,5.2617 -21.7696,2.289 -44.2696,3.7578 -67.1289,3.4805 -22.8633,-0.062 -46.0821,-1.5625 -69.3125,-3.7227 -23.2188,-2.1602 -46.4375,-4.2695 -69.3008,-5.1367 -22.8594,-0.8711 -45.3594,-1.7735 -67.1289,-2.3828 -21.7696,-0.5899 -42.8086,-0.6602 -62.7696,-0.1172 -19.95699,0.5586 -38.82417,1.3476 -56.24214,2.3984 -17.41407,1.0391 -33.37891,2.2695 -47.53125,3.5899 -7.07813,0.5781 -13.69922,1.2695 -19.82032,1.9492 -6.125,0.6523 -11.75,1.2422 -16.82812,1.9101 -20.32031,2.461 -31.92969,4.5821 -31.92969,4.5821 v 3.039 c 0,0 11.60938,2.1211 31.92969,4.5782 5.07812,0.6796 10.70312,1.2617 16.82812,1.9101 6.1211,0.6797 12.74219,1.3711 19.82032,1.9492 14.15234,1.3203 30.11718,2.5508 47.53125,3.5938 17.41797,1.0469 36.28515,1.8398 56.24214,2.3984 19.961,0.5508 41,0.4688 62.7696,-0.1211 21.7695,-0.6094 44.2695,-1.5078 67.1289,-2.3789 22.8633,-0.8711 46.082,-2.9805 69.3008,-5.1406 23.2304,-2.1484 46.4492,-3.6602 69.3125,-3.7188 22.8593,-0.2812 45.3593,1.1875 67.1289,3.4883 21.7695,2.2227 42.8086,4.6406 62.7695,5.25 9.9805,0.3594 19.6797,0.4297 29.0703,0.2422 9.3906,-0.1133 18.461,-0.3828 27.168,-0.6601 34.8398,-1.293 63.8633,-3.8594 84.1836,-6.4415 10.1562,-1.2617 18.1367,-2.5507 23.5898,-3.4179 5.4375,-0.9414 8.3399,-1.5313 8.3399,-1.5313 v -3.039"
       style="fill:#27aae1;fill-opacity:1;fill-rule:nonzero;stroke:none"
       transform="matrix(0.16771548,0,0,0.16688543,82.313513,39.016776)"
       clip-path="url(#clipPath8)" />
    <path
       id="path9"
       d="m 793.15625,1190.3008 c 0,0 -5.70703,-1.6719 -15.69531,-3.461 -9.98438,-1.8203 -24.25391,-3.621 -41.375,-4.5195 -8.5625,-0.3711 -17.83594,-0.8008 -27.64453,-0.3008 -9.8086,0.4297 -20.15625,2.1289 -30.85547,3.6914 -10.69922,1.6094 -21.75781,2.6407 -32.99219,2.4375 -11.23828,-0.047 -22.65234,-1.0898 -34.06641,-2.6093 -11.41406,-1.5078 -22.82812,-2.9883 -34.0664,-3.5977 -11.23438,-0.6133 -22.29297,-1.2422 -32.99219,-1.6719 -10.70312,-0.4101 -21.04687,-0.4687 -30.85547,-0.078 -9.80859,0.3867 -19.08594,0.9375 -27.64453,1.6797 -8.5625,0.7305 -16.40625,1.5898 -23.36328,2.4883 -6.95703,0.9101 -13.01953,1.8515 -18.01172,2.7304 -9.98828,1.7305 -15.69922,3.211 -15.69922,3.211 v 2.1289 c 0,0 5.71094,1.4922 15.69922,3.2109 4.99219,0.8789 11.05469,1.8282 18.01172,2.7383 6.95703,0.9024 14.80078,1.75 23.36328,2.4922 8.55859,0.7305 17.83594,1.2891 27.64453,1.6797 9.8086,0.3789 20.15235,0.3281 30.85547,-0.082 10.69922,-0.4297 21.75781,-1.0586 32.99219,-1.668 11.23828,-0.6094 22.65234,-2.0899 34.0664,-3.6016 11.41407,-1.5195 22.82813,-2.5703 34.06641,-2.6094 11.23438,-0.1992 22.29297,0.8321 32.99219,2.4415 10.69922,1.5585 21.04687,3.25 30.85547,3.6875 9.80859,0.5 19.08203,0.07 27.64453,-0.2969 17.12109,-0.9024 31.39062,-2.711 41.375,-4.5235 9.98828,-1.7968 15.69531,-3.4687 15.69531,-3.4687 v -2.1289"
       style="fill:#27aae1;fill-opacity:1;fill-rule:nonzero;stroke:none"
       transform="matrix(0.16771548,0,0,0.16688543,82.313513,39.016776)"
       clip-path="url(#clipPath10)" />
    <path
       id="path11"
       d="m 278.92969,1130.3203 c 0,0 3.5039,0.6485 10.07031,1.6797 6.56641,0.9609 16.19922,2.3789 28.45703,3.7617 24.51953,2.8281 59.54688,5.6602 101.57813,7.0664 10.50781,0.3203 21.45312,0.6133 32.78125,0.7305 11.33203,0.2109 23.04297,0.1328 35.08203,-0.2578 24.08203,-0.6797 49.47656,-3.332 75.74609,-5.7813 26.26953,-2.5195 53.41797,-4.1289 81,-3.8203 27.58594,0.062 55.60547,1.7227 83.625,4.0821 28.02344,2.3671 56.04688,4.6875 83.62891,5.6484 27.58203,0.9492 54.73047,1.9414 81,2.6094 26.26953,0.6523 51.66406,0.7304 75.74609,0.1406 24.08203,-0.6211 46.84377,-1.4883 67.86717,-2.6406 21.0078,-1.1485 40.2774,-2.4883 57.3477,-3.8985 8.539,-0.6914 16.5312,-1.4492 23.9219,-2.1914 7.3906,-0.7109 14.1796,-1.3476 20.3085,-2.0976 24.5118,-2.7032 38.5313,-5.0313 38.5313,-5.0313 v -3.332 c 0,0 -14.0195,-2.3281 -38.5313,-5.0391 -6.1289,-0.7383 -12.9179,-1.3789 -20.3085,-2.0976 -7.3907,-0.7422 -15.3829,-1.5 -23.9219,-2.1797 -17.0703,-1.4102 -36.3399,-2.75 -57.3477,-3.9024 -21.0234,-1.1484 -43.78514,-2.0195 -67.86717,-2.6406 -24.08203,-0.5976 -49.47656,-0.5078 -75.74609,0.1406 -26.26953,0.6719 -53.41797,1.6602 -81,2.6094 -27.58203,0.9609 -55.60547,3.2695 -83.62891,5.6406 -28.01953,2.3711 -56.03906,4.0196 -83.625,4.0899 -27.58203,0.3125 -54.73047,-1.3086 -81,-3.8281 -26.26953,-2.4415 -51.66406,-5.1016 -75.74609,-5.7696 -12.03906,-0.3906 -23.75,-0.4726 -35.08203,-0.2617 -11.32813,0.1211 -22.27344,0.4102 -32.78125,0.7305 -42.03125,1.4101 -77.0586,4.2304 -101.57813,7.0703 -12.25781,1.3789 -21.89062,2.8008 -28.45703,3.7578 -6.56641,1.0195 -10.07031,1.6797 -10.07031,1.6797 v 3.332"
       style="fill:#27aae1;fill-opacity:1;fill-rule:nonzero;stroke:none"
       transform="matrix(0.16771548,0,0,0.16688543,82.313513,39.016776)"
       clip-path="url(#clipPath12)" />
    <path
       id="path13"
       d="m 1214.0391,1129.9102 c 0,0 7.9179,2 21.7812,4.0625 13.8633,2.1875 33.6719,4.2695 57.4414,5.3398 5.9336,0.2383 12.1328,0.457 18.5391,0.5469 6.4101,0.1601 13.0312,0.1015 19.8398,-0.1875 13.6133,-0.5117 27.9727,-2.5117 42.8282,-4.3516 14.8437,-1.8906 30.1992,-3.1015 45.8046,-2.8711 15.5821,0.051 31.4336,1.293 47.2696,3.0703 15.8593,1.7813 31.6992,3.5196 47.2929,4.2422 15.6055,0.7188 30.9571,1.461 45.8047,1.9688 14.8555,0.4922 29.2149,0.5508 42.8242,0.1015 13.6211,-0.4609 26.4922,-1.1211 38.3829,-1.9922 11.8789,-0.8476 22.7734,-1.8671 32.4336,-2.957 4.8281,-0.4805 9.3437,-1.0508 13.5156,-1.6133 4.1836,-0.539 8.0234,-1.0195 11.4765,-1.5781 13.875,-2.0312 21.793,-3.7812 21.793,-3.7812 v -2.5079 c 0,0 -7.918,-1.75 -21.793,-3.7812 -3.4531,-0.5586 -7.2929,-1.0508 -11.4765,-1.582 -4.1719,-0.5664 -8.6875,-1.1289 -13.5156,-1.6094 -9.6602,-1.0899 -20.5547,-2.1094 -32.4336,-2.9688 -11.8907,-0.8593 -24.7618,-1.5195 -38.3829,-1.9804 -13.6093,-0.4492 -27.9687,-0.3907 -42.8242,0.1015 -14.8476,0.5 -30.1992,1.25 -45.8047,1.9571 -15.5937,0.7226 -31.4336,2.4726 -47.2929,4.25 -15.836,1.7812 -31.6875,3.0234 -47.2696,3.0703 -15.6054,0.2304 -30.9609,-0.9766 -45.8046,-2.8789 -14.8555,-1.8282 -29.2149,-3.8282 -42.8282,-4.3399 -6.8086,-0.289 -13.4297,-0.3515 -19.8398,-0.1992 -6.4063,0.098 -12.6055,0.3203 -18.5391,0.5508 -23.7695,1.0781 -43.5781,3.1601 -57.4414,5.3476 -13.8633,2.0625 -21.7812,4.0625 -21.7812,4.0625 v 2.5079"
       style="fill:#27aae1;fill-opacity:1;fill-rule:nonzero;stroke:none"
       transform="matrix(0.16771548,0,0,0.16688543,82.313513,39.016776)"
       clip-path="url(#clipPath14)" />
    <path
       id="path15"
       d="m 200,1079.293 c 0,0 25,3.0312 68.75,6.1523 43.75,3.3164 106.25,6.4766 181.24609,8.0977 18.75,0.3711 38.28125,0.6992 58.4961,0.8398 20.21484,0.2422 41.11328,0.1406 62.59765,-0.3008 42.96875,-0.7695 88.28125,-3.7968 135.15625,-6.5781 23.4375,-1.332 47.26563,-2.6289 71.38672,-3.3984 24.1211,-0.8203 48.53516,-1.0625 73.14453,-0.9727 49.21875,0.082 99.21875,1.961 149.21875,4.6602 25.00001,1.2812 50.00001,2.5586 74.89841,3.832 12.4532,0.5078 24.8828,1.0078 37.2696,1.5078 12.3906,0.3594 24.7461,0.711 37.0468,1.0625 49.2188,1.168 97.6641,2.2266 144.5313,2.9492 46.8867,0.8711 92.1953,0.8711 135.1641,0.2188 42.9687,-0.6992 83.5859,-1.6992 121.0859,-3.0078 37.5039,-1.4727 71.8789,-2.7813 102.3476,-4.5 15.2383,-0.7227 29.4922,-1.5821 42.668,-2.4336 13.1836,-0.8164 25.3008,-1.5469 36.2305,-2.3985 43.7539,-3.082 68.7539,-5.7304 68.7539,-5.7304 v -3.8086 c 0,0 -25,-2.6524 -68.7539,-5.7305 -10.9297,-0.8516 -23.0469,-1.582 -36.2305,-2.3984 -13.1758,-0.8516 -27.4297,-1.7032 -42.668,-2.4336 -30.4687,-1.7188 -64.8437,-3.0274 -102.3476,-4.5 -37.5,-1.3086 -78.1172,-2.3086 -121.0859,-3.0078 -42.9688,-0.6485 -88.2774,-0.6485 -135.1641,0.2187 -46.8672,0.7227 -95.3125,1.7813 -144.5313,2.9492 -12.3007,0.3516 -24.6562,0.7032 -37.0468,1.0625 -12.3868,0.5 -24.8164,1 -37.2696,1.5078 -24.8984,1.2696 -49.8984,2.5508 -74.89841,3.8321 -50,2.6992 -100,4.5781 -149.21875,4.6601 -24.60937,0.09 -49.02343,-0.1523 -73.14453,-0.9726 -24.12109,-0.7696 -47.94922,-2.0664 -71.38672,-3.3985 -46.875,-2.7812 -92.1875,-5.8086 -135.15625,-6.582 -21.48437,-0.4375 -42.38281,-0.5391 -62.59765,-0.2969 -20.21485,0.1407 -39.7461,0.4688 -58.4961,0.8399 C 375,1062.8555 312.5,1066.0117 268.75,1069.3359 225,1072.4531 200,1075.4844 200,1075.4844 v 3.8086"
       style="fill:#27aae1;fill-opacity:1;fill-rule:nonzero;stroke:none"
       transform="matrix(0.16771548,0,0,0.16688543,82.313513,39.016776)"
       clip-path="url(#clipPath16)" />
    <path
       id="path17"
       d="m 566.57813,903.76172 c 20.99218,-20.99219 90.52734,-57.73047 90.52734,-57.73047 0,0 26.24219,-30.17187 52.48047,-40.67187 26.23828,-10.48829 143.00781,-81.33985 150.8789,-57.73047 7.8711,23.62109 41.98438,53.80078 72.16016,72.16015 23.07813,14.05078 72.2344,57.25 110.5234,87.35938 96.25,-83.51953 66.3907,-161.14844 120.4727,-107.07031 69.6797,69.68359 396.8398,236.69137 396.8398,236.69137 0,0 -166.75,-40.39841 -194.1211,-37.42966 -38.3515,4.14846 -42,-34.75 -62.7695,-49.98828 -20.7695,-15.23047 -56.6211,8.01953 -52.4687,17.71875 4.1601,9.69141 -56.7813,-67.85937 -56.7813,-67.85937 0,0 -76.1601,-23.53906 -62.3086,-1.38281 13.8477,22.15234 1.3789,29.08203 -34.6211,23.54296 l -24.2304,7.86719 c 0.3789,0.25 0.7812,0.52344 1.1601,0.76172 36.7305,23.62109 171.1289,106.7695 171.1289,106.7695 0,0 -78.2383,3.5821 -128.5078,-24.3789 -75.4297,-41.96872 -83.043,24.7188 -83.043,24.7188 -26.4882,-21.1211 -66.54684,-59.94924 -66.54684,-59.94924 l -38.1289,11.96875 c 0,0 -62.38282,-60.10938 -80.56641,-81.08985 -18.17969,-20.98828 -120.19531,-1.71093 -120.19531,-1.71093 9.64062,-23.81641 76.55859,-79.38672 76.55859,-79.38672 L 900.86328,827.5 c 0,0 -51.60547,-46.5 -52.20703,-55.01172 -0.59766,-8.5 -81.40625,36.13281 -94.72656,47.99219 -32.91797,29.30078 -45.3711,9.44922 -58.92969,14.96094 -15.15234,6.16797 -27.30469,54.36718 -27.30469,54.36718 0,0 -74.77734,6.88282 -50.33203,27.8711 24.44531,20.98047 3.88281,38.64844 3.88281,38.64844 -2.26562,-10.77735 -62.92187,-8.02735 -62.92187,-8.02735 l 5.67187,27.78906 -56.09375,15.10938 -115.64453,45.57028 c 0,0 153.33203,-112.0195 174.32032,-133.00778"
       style="fill:#231f20;fill-opacity:1;fill-rule:nonzero;stroke:none"
       transform="matrix(0.16771548,0,0,0.16688543,82.313513,39.016776)"
       clip-path="url(#clipPath18)" />
    <path
       id="path19"
       d="m 18.331417,-23.612918 -0.36329,5.53318 -0.125754,0.04192 c -0.932676,-1.397268 -2.511588,-2.298505 -4.736736,-2.710699 -0.709114,-0.139727 -1.383295,-0.20959 -2.026038,-0.20959 -0.642743,0 -1.1946639,0.05589 -1.6487759,0.167672 -0.4576051,0.111781 -0.84884,0.27596 -1.1737047,0.489043 -0.6916474,0.457605 -1.0339779,1.047951 -1.0339779,1.77453 0,0.950142 0.2969193,1.662748 0.8942512,2.137819 0.7545244,0.579866 2.0015853,0.985074 3.7446773,1.215623 1.739598,0.234042 3.136865,0.551921 4.191802,0.950142 1.051444,0.401714 1.914256,0.908224 2.584945,1.523021 1.285486,1.14576 1.928229,2.7735764 1.928229,4.8764639 0,2.7596033 -1.044457,4.8834499 -3.129879,6.3715398 -1.781516,1.28548605 -4.020637,1.92822909 -6.720857,1.92822909 -2.1797371,0 -4.3385153,-0.41568708 -6.4693482,-1.24356806 C 3.548327,-1.0470478 2.9335293,-1.3684193 2.4025677,-1.7317088 l 0.2095901,-6.273731 0.069863,-0.055891 c 1.55446,2.6827535 4.1079664,4.0241303 7.6570262,4.0241303 2.515081,0 4.181323,-0.6078113 5.002218,-1.8304204 0.268974,-0.4087007 0.405207,-0.8663058 0.405207,-1.3693221 0,-0.5100027 -0.08384,-0.9291829 -0.251508,-1.2575408 -0.160686,-0.3353442 -0.426167,-0.621784 -0.796442,-0.8663058 -0.72658,-0.4750709 -1.952682,-0.7894554 -3.674814,-0.9501414 -1.7151462,-0.167672 -3.1159068,-0.475071 -4.2057755,-0.922197 -1.0898686,-0.454112 -1.9631608,-1.013019 -2.6128902,-1.676721 -1.1737047,-1.20165 -1.760557,-2.881864 -1.760557,-5.044135 0,-2.225149 0.7824698,-4.027624 2.3474094,-5.407425 1.5928849,-1.404254 3.7376905,-2.109874 6.4414033,-2.109874 2.70022,0 5.065095,0.621784 7.098119,1.858365 z m 11.293414,20.6376411 c -1.138773,-1.0898686 -2.036517,-2.3963137 -2.696726,-3.9263216 -0.663702,-1.5265148 -0.99206,-3.1997425 -0.99206,-5.0161905 0,-1.823434 0.307399,-3.552552 0.922197,-5.183862 0.614798,-1.627817 1.48809,-3.063509 2.626863,-4.303584 1.145759,-1.236582 2.522067,-2.225148 4.135911,-2.962207 1.620831,-0.733566 3.430292,-1.103841 5.435371,-1.103841 3.465223,0 6.378526,1.089868 8.746894,3.269606 2.532548,2.340423 3.800568,5.487768 3.800568,9.445528 0,3.8285126 -1.306445,7.0142825 -3.912349,9.5573093 -1.603364,1.5649396 -3.517621,2.64782189 -5.742769,3.24166057 -1.089869,0.28643983 -2.368369,0.43315292 -3.828513,0.43315292 -1.453158,0 -2.948235,-0.30390568 -4.485229,-0.90822386 C 32.097995,-1.0365683 30.760111,-1.8854083 29.624831,-2.9752769 Z m 1.536995,-9.2079931 c 0,1.166719 0.195617,2.2356284 0.586852,3.2137156 0.391235,0.9780872 0.929183,1.8234341 1.62083,2.5290541 1.460145,1.4741172 3.346456,2.2076827 5.658934,2.2076827 2.186723,0 3.94728,-0.7056201 5.281671,-2.1238466 1.348363,-1.4601445 2.026038,-3.458237 2.026038,-5.9942778 0,-2.375354 -0.64973,-4.359474 -1.942202,-5.952359 -1.390281,-1.704667 -3.294058,-2.557 -5.714824,-2.557 -2.340423,0 -4.198789,0.862813 -5.575098,2.584945 -1.295965,1.62083 -1.942201,3.653855 -1.942201,6.092086 z M 62.013492,9.0284555e-4 c -1.844393,0 -3.070496,0.0349316844 -3.674814,0.11178139445 V -25.107994 c 0.307399,0.07685 0.929183,0.111782 1.872339,0.111782 0.950142,0 2.046997,-0.02795 3.297551,-0.08384 v 20.5677769 h 3.898376 c 1.124801,0 2.026038,-0.034932 2.696726,-0.1117814 -0.08384,2.9342617 -0.125754,4.45728325 -0.125754,4.56906465 V 0.12665692 C 68.748321,0.04282087 66.683858,9.0284555e-4 63.788021,9.0284555e-4 Z M 85.358338,0.11268424 C 84.761006,0.03583453 83.213533,9.0284555e-4 80.71941,9.0284555e-4 H 80.118585 V -20.790437 h -3.730704 c -1.100348,0 -1.753571,0.05589 -1.956175,0.167672 -0.195617,0.111781 -0.349316,0.216576 -0.461098,0.307399 l -0.05589,-0.02795 v -4.8066 l 0.05589,-0.05589 c 0.408701,0.139727 1.523022,0.209591 3.33947,0.209591 h 11.792937 c 1.096855,0 1.746584,-0.05589 1.942202,-0.167673 0.202604,-0.111781 0.363289,-0.213083 0.475071,-0.307398 l 0.05589,0.02794 v 4.8066 l -0.05589,0.05589 c -0.412194,-0.139727 -1.523022,-0.20959 -3.339469,-0.20959 H 85.358338 Z M 110.11093,-4.5122711 c 0.78247,0 1.32042,-0.073357 1.62083,-0.2235628 l 0.0699,0.013973 -0.18165,4.72276414555 H 97.535524 V -25.135939 c 0.342331,0.02794 0.719593,0.0489 1.131787,0.05589 l 1.313431,0.04192 c 0.873288,0.02794 1.830418,0.04192 2.864398,0.04192 2.86789,0 5.70435,-0.04891 8.50936,-0.1537 -0.13973,1.100348 -0.20959,2.570972 -0.20959,4.415365 0,0.206097 0.014,0.359797 0.0419,0.461099 l -0.0419,0.05589 c -0.65322,-0.195617 -1.57891,-0.293426 -2.78056,-0.293426 h -5.92442 v 4.792628 h 4.45729 c 1.3763,0 2.20768,-0.03493 2.48713,-0.111782 l 0.0559,4.652901 c -0.60781,-0.06288 -1.38329,-0.09781 -2.33343,-0.09781 h -4.66688 v 6.7627749 z m 19.83421,-20.9590119 c 2.34741,0 4.34551,0.412194 5.99428,1.229595 v 5.742769 l -0.0279,0.04192 c -0.70912,-1.079389 -2.19022,-1.791995 -4.44331,-2.137819 -0.66371,-0.111781 -1.50207,-0.167672 -2.51509,-0.167672 -1.01651,0 -2.01206,0.192124 -2.99015,0.57288 -0.97809,0.384248 -1.78151,0.922196 -2.4033,1.62083 -1.22261,1.369322 -1.83042,3.31851 -1.83042,5.840578 0,2.9447413 0.77199,5.1384512 2.31946,6.5811299 1.27501,1.2016501 2.96571,1.8024751 5.07209,1.8024751 2.38234,0 4.31057,-0.5065095 5.78468,-1.5230216 0.53795,-0.3632895 0.99556,-0.8139083 1.36933,-1.3553494 l 0.0559,0.041918 v 5.2676984 c -1.91077,1.59288492 -4.49222,2.38932739 -7.74087,2.38932739 -3.82152,0 -6.81517,-1.21562271 -8.98443,-3.64686809 -2.07843,-2.3194641 -3.1159,-5.3864662 -3.1159,-9.2079927 0,-4.052076 1.13877,-7.241339 3.4233,-9.571282 2.29851,-2.34741 5.64496,-3.521114 10.03238,-3.521114 z m 0,0"
       style="fill:#231f20;fill-opacity:1;fill-rule:nonzero;stroke:none"
       aria-label="SOLTEC"
       transform="matrix(1.118254,0,0,1.118254,172.91879,305.77633)"
       clip-path="url(#clipPath20)" />
    <path
       id="path21"
       d="M -0.26647464,-10.655202 H 4.0460255 v 0.8906255 l -1.25,0.1875 1.8125001,6.4687502 0.328125,1.5937501 0.328125,-1.5937501 1.5312501,-5.2500002 -0.4062501,-1.21875 -0.9375,-0.1875 v -0.8906255 h 4.4843752 v 0.8906255 l -1.3750001,0.1875 1.7968753,6.4687502 0.390625,1.7187501 0.296875,-1.7187501 1.640625,-6.4687502 -1.296875,-0.1875 v -0.8906255 h 3.453125 v 0.8906255 l -0.921875,0.1875 -2.71875,9.65625036 H 9.3116508 L 7.3272757,-6.6239514 5.4366506,0.07917386 H 3.5772755 L 0.6085254,-9.5614515 -0.26647464,-9.7645765 Z m 19.47656364,-0.0625 h 2.1875 l 3.3125,9.71875082 0.828125,0.14062501 v 0.85937503 h -4.21875 v -0.85937503 l 1.0625,-0.14062501 -0.546875,-1.87500012 h -3.71875 l -0.5625,1.89062512 1.15625,0.12500001 v 0.85937503 h -3.656251 l -0.01563,-0.85937503 0.859376,-0.14062501 z m 0.984375,2.4218755 -0.265625,-1.109375 -0.265625,1.125 -1.28125,4.4062502 h 3.15625 z m 9.917969,-1.40625 -2.046875,0.0625 -0.5625,3.1250001 h -1.203125 l 0.234375,-4.1406256 h 9.25 l 0.171875,4.1406256 h -1.125 l -0.5625,-3.1250001 -2.015625,-0.0625 v 8.70312532 l 2,0.14062501 v 0.85937503 h -5.984375 v -0.85937503 l 1.84375,-0.14062501 z m 8.558594,0.125 -1.140625,-0.1875 v -0.8906255 h 7.640625 l 0.1875,2.4062505 h -1 l -0.46875,-1.421875 -3.109375,-0.125 v 3.8593751 l 2,-0.046875 0.234375,-1.171875 h 0.90625 v 3.4687501 h -0.90625 l -0.234375,-1.234375 -2,-0.046875 v 4.04687512 l 3.46875,-0.17187502 0.84375,-1.8281251 1.078125,0.2968751 -0.375,2.62500006 h -8.25 v -0.85937503 l 1.125,-0.14062501 z m 8.976563,8.71875033 1.125,-0.14062501 V -9.5770765 l -1.078125,-0.203125 v -0.8750005 h 2.09375 c 0.175781,0 0.375,-0.0039 0.59375,-0.01563 0.21875,-0.0078 0.382812,-0.01953 0.5,-0.03125 0.5,-0.03125 0.910156,-0.04687 1.234375,-0.04687 0.988281,0 1.78125,0.101563 2.375,0.296875 0.59375,0.199219 1.019531,0.5078129 1.28125,0.9218755 0.269531,0.40625 0.40625,0.9453125 0.40625,1.609375 0,0.6679688 -0.179687,1.2812501 -0.53125,1.8437501 -0.355469,0.5625 -0.867187,0.9492188 -1.53125,1.1562501 0.382813,0.1679687 0.722656,0.4648437 1.015625,0.890625 0.289063,0.4296875 0.609375,0.984375 0.953125,1.6718751 0.238281,0.46875 0.421875,0.8085937 0.546875,1.015625 0.125,0.2109375 0.25,0.328125 0.375,0.35937502 l 0.484375,0.14062501 v 0.84375003 h -2.453125 c -0.148437,0 -0.304687,-0.15625001 -0.46875,-0.46875002 -0.167969,-0.31250001 -0.386719,-0.80078124 -0.65625,-1.46875004 -0.3125,-0.7812501 -0.585937,-1.3906251 -0.8125,-1.8281251 -0.230469,-0.4453125 -0.476562,-0.7226563 -0.734375,-0.828125 h -1.484375 v 3.59375012 l 1.328125,0.14062501 v 0.85937503 h -4.5625 z m 4.5625,-4.60937523 c 0.539063,0 0.960938,-0.1914062 1.265625,-0.578125 0.3125,-0.3945313 0.46875,-0.984375 0.46875,-1.7656251 0,-0.6953125 -0.152344,-1.2109375 -0.453125,-1.546875 -0.304687,-0.34375 -0.824219,-0.5156251 -1.5625,-0.5156251 -0.261719,0 -0.484375,0.015625 -0.671875,0.046875 -0.1875,0.023437 -0.3125,0.03125 -0.375,0.03125 v 4.2968751 c 0.113281,0.023437 0.394531,0.03125 0.84375,0.03125 z m 0,0"
       style="display:inline;fill:#231f20;fill-opacity:1;fill-rule:nonzero;stroke:none"
       aria-label="WATER"
       transform="translate(221.27819,337.4677)"
       clip-path="url(#clipPath22)" />
  </g>
</svg>
