<svg xmlns="http://www.w3.org/2000/svg" version="1.1" xmlns:xlink="http://www.w3.org/1999/xlink" xmlns:svgjs="http://svgjs.dev/svgjs" width="1440" height="560" preserveAspectRatio="none" viewBox="0 0 1440 560"><g mask="url(&quot;#SvgjsMask1006&quot;)" fill="none"><path d="M0 224.88L10 162.34L20 157.09L30 100.57L40 151.58L50 96.25L60 102.84L70 153.58L80 217.55L90 169.91L100 232.54L110 169.15L120 226.07L130 184.72L140 234.63L150 224.94L160 165.91L170 141.89L180 210.98L190 143.65L200 155.14L210 221.41L220 159.91L230 178.28L240 214.38L250 176.21L260 218.83L270 278.2L280 239.99L290 189.69L300 225.21L310 293.51L320 320.75L330 315.3L340 377.58L350 379.34L360 355.49L370 408.78L380 413.86L390 435.32L400 453.1L410 517.46L420 449.21L430 405.46L440 363.07L450 406.39L460 411.17L470 365.85L480 310.12L490 335.81L500 355.07L510 285.18L520 333.2L530 361.06L540 386.04L550 434.08L560 451.01L570 507.02L580 510.29L590 490.5L600 459.92L610 391.81L620 448.05L630 385.15L640 322.69L650 287.1L660 354.64L670 330.93L680 296.54L690 251.56L700 188.54L710 142.68L720 192.35L730 217.67L740 173L750 113.32L760 98.58L770 74.62L780 104.96L790 125L800 159.91L810 173.79L820 228.29L830 257.93L840 289.47L850 300.39L860 246.29L870 259.14L880 301.38L890 279.11L900 313.57L910 346.36L920 333.55L930 341.55L940 315.49L950 359.63L960 293.95L970 329.29L980 271.01L990 317.63L1000 305.85L1010 288.25L1020 261.56L1030 221.36L1040 182.29L1050 230.21L1060 284.32L1070 226.07L1080 186.57L1090 236.83L1100 267.52L1110 299.42L1120 235.94L1130 297.56L1140 282.24L1150 327.73L1160 298.59L1170 239.05L1180 219.5L1190 265.36L1200 265.34L1210 245.19L1220 198.16L1230 158.04L1240 138.86L1250 71.19L1260 64.4L1270 47.84L1280 60.69L1290 34.16L1300 1.57L1310 40.54L1320 71.17L1330 123.46L1340 168.85L1350 138.72L1360 186.49L1370 253.28L1380 294.03L1390 233.53L1400 237.01L1410 289L1420 237.33L1430 223.9L1440 165.52" stroke="#224b75" stroke-width="2"></path><path d="M0 224.88L10 162.34L20 157.09L30 100.57L40 151.58L50 96.25L60 102.84L70 153.58L80 217.55L90 169.91L100 232.54L110 169.15L120 226.07L130 184.72L140 234.63L150 224.94L160 165.91L170 141.89L180 210.98L190 143.65L200 155.14L210 221.41L220 159.91L230 178.28L240 214.38L250 176.21L260 218.83L270 278.2L280 239.99L290 189.69L300 225.21L310 293.51L320 320.75L330 315.3L340 377.58L350 379.34L360 355.49L370 408.78L380 413.86L390 435.32L400 453.1L410 517.46L420 449.21L430 405.46L440 363.07L450 406.39L460 411.17L470 365.85L480 310.12L490 335.81L500 355.07L510 285.18L520 333.2L530 361.06L540 386.04L550 434.08L560 451.01L570 507.02L580 510.29L590 490.5L600 459.92L610 391.81L620 448.05L630 385.15L640 322.69L650 287.1L660 354.64L670 330.93L680 296.54L690 251.56L700 188.54L710 142.68L720 192.35L730 217.67L740 173L750 113.32L760 98.58L770 74.62L780 104.96L790 125L800 159.91L810 173.79L820 228.29L830 257.93L840 289.47L850 300.39L860 246.29L870 259.14L880 301.38L890 279.11L900 313.57L910 346.36L920 333.55L930 341.55L940 315.49L950 359.63L960 293.95L970 329.29L980 271.01L990 317.63L1000 305.85L1010 288.25L1020 261.56L1030 221.36L1040 182.29L1050 230.21L1060 284.32L1070 226.07L1080 186.57L1090 236.83L1100 267.52L1110 299.42L1120 235.94L1130 297.56L1140 282.24L1150 327.73L1160 298.59L1170 239.05L1180 219.5L1190 265.36L1200 265.34L1210 245.19L1220 198.16L1230 158.04L1240 138.86L1250 71.19L1260 64.4L1270 47.84L1280 60.69L1290 34.16L1300 1.57L1310 40.54L1320 71.17L1330 123.46L1340 168.85L1350 138.72L1360 186.49L1370 253.28L1380 294.03L1390 233.53L1400 237.01L1410 289L1420 237.33L1430 223.9L1440 165.52L1440 560L0 560z" fill="url(&quot;#SvgjsLinearGradient1007&quot;)"></path></g><defs><mask id="SvgjsMask1006"><rect width="1440" height="560" fill="#ffffff"></rect></mask><linearGradient x1="50%" y1="0%" x2="50%" y2="100%" id="SvgjsLinearGradient1007"><stop stop-opacity="0.65" stop-color="#224b75" offset="0"></stop><stop stop-opacity="0" stop-color="#508dcc" offset="0.8"></stop></linearGradient></defs></svg>